<svg xmlns="http://www.w3.org/2000/svg" viewBox="32.00 30.30 925.44 153.33" width="925" height="153">
  <g fill="#1C1B1A">
    <path d="M1002 1186Q1002 1157 999.5 1136.5Q997 1116 992.0 1103.5Q987 1091 979.5 1085.0Q972 1079 963 1079H639V36Q639 26 632.5 18.0Q626 10 611.0 5.0Q596 0 570.5 -3.0Q545 -6 507 -6Q469 -6 443.5 -3.0Q418 0 403.0 5.0Q388 10 381.5 18.0Q375 26 375 36V1079H51Q41 1079 34.0 1085.0Q27 1091 22.0 1103.5Q17 1116 14.5 1136.5Q12 1157 12 1186Q12 1216 14.5 1237.0Q17 1258 22.0 1270.5Q27 1283 34.0 1288.5Q41 1294 51 1294H963Q972 1294 979.5 1288.5Q987 1283 992.0 1270.5Q997 1258 999.5 1237.0Q1002 1216 1002 1186Z" transform="translate(38.80,170.13) scale(0.10010,-0.10010)"></path>
    <path d="M908 103Q908 74 905.5 54.5Q903 35 898.0 23.0Q893 11 885.5 5.5Q878 0 869 0H219Q186 0 163.5 19.5Q141 39 141 83V1211Q141 1255 163.5 1274.5Q186 1294 219 1294H865Q874 1294 881.0 1289.0Q888 1284 893.0 1271.5Q898 1259 900.5 1239.5Q903 1220 903 1190Q903 1162 900.5 1142.5Q898 1123 893.0 1111.0Q888 1099 881.0 1093.5Q874 1088 865 1088H403V772H794Q803 772 810.5 766.5Q818 761 823.0 749.5Q828 738 830.5 718.5Q833 699 833 671Q833 642 830.5 623.0Q828 604 823.0 592.5Q818 581 810.5 576.0Q803 571 794 571H403V206H869Q878 206 885.5 200.5Q893 195 898.0 183.0Q903 171 905.5 151.5Q908 132 908 103Z" transform="translate(133.39,170.13) scale(0.10010,-0.10010)"></path>
    <path d="M1649 36Q1649 26 1643.5 18.0Q1638 10 1623.5 5.0Q1609 0 1585.0 -3.0Q1561 -6 1524 -6Q1488 -6 1464.0 -3.0Q1440 0 1426.0 5.0Q1412 10 1406.0 18.0Q1400 26 1400 36V1089H1398L1023 37Q1019 24 1010.0 15.5Q1001 7 985.5 2.0Q970 -3 946.0 -4.5Q922 -6 888 -6Q854 -6 830.0 -3.5Q806 -1 790.5 4.5Q775 10 766.0 18.0Q757 26 754 37L392 1089H390V36Q390 26 384.5 18.0Q379 10 364.0 5.0Q349 0 325.5 -3.0Q302 -6 265 -6Q229 -6 205.0 -3.0Q181 0 166.5 5.0Q152 10 146.5 18.0Q141 26 141 36V1189Q141 1240 168.0 1267.0Q195 1294 240 1294H412Q458 1294 491.0 1286.5Q524 1279 548.0 1261.5Q572 1244 588.0 1215.5Q604 1187 616 1145L896 374H900L1190 1143Q1203 1185 1218.5 1214.0Q1234 1243 1254.5 1261.0Q1275 1279 1303.0 1286.5Q1331 1294 1368 1294H1545Q1572 1294 1591.5 1287.0Q1611 1280 1623.5 1266.5Q1636 1253 1642.5 1233.5Q1649 1214 1649 1189Z" transform="translate(239.38,170.13) scale(0.10010,-0.10010)"></path>
    <path d="M908 103Q908 74 905.5 54.5Q903 35 898.0 23.0Q893 11 885.5 5.5Q878 0 869 0H219Q186 0 163.5 19.5Q141 39 141 83V1211Q141 1255 163.5 1274.5Q186 1294 219 1294H865Q874 1294 881.0 1289.0Q888 1284 893.0 1271.5Q898 1259 900.5 1239.5Q903 1220 903 1190Q903 1162 900.5 1142.5Q898 1123 893.0 1111.0Q888 1099 881.0 1093.5Q874 1088 865 1088H403V772H794Q803 772 810.5 766.5Q818 761 823.0 749.5Q828 738 830.5 718.5Q833 699 833 671Q833 642 830.5 623.0Q828 604 823.0 592.5Q818 581 810.5 576.0Q803 571 794 571H403V206H869Q878 206 885.5 200.5Q893 195 898.0 183.0Q903 171 905.5 151.5Q908 132 908 103Z" transform="translate(424.56,170.13) scale(0.10010,-0.10010)"></path>
    <path d="M852 110Q852 80 849.5 59.5Q847 39 842.0 25.5Q837 12 829.5 6.0Q822 0 812 0H219Q186 0 163.5 19.5Q141 39 141 83V1258Q141 1268 147.5 1276.0Q154 1284 169.0 1289.0Q184 1294 209.5 1297.0Q235 1300 273 1300Q312 1300 337.0 1297.0Q362 1294 377.0 1289.0Q392 1284 398.5 1276.0Q405 1268 405 1258V217H812Q822 217 829.5 211.5Q837 206 842.0 193.5Q847 181 849.5 160.5Q852 140 852 110Z" transform="translate(530.56,170.13) scale(0.10010,-0.10010)"></path>
    <path d="M664 491V36Q664 26 657.5 18.0Q651 10 636.0 5.0Q621 0 595.5 -3.0Q570 -6 532 -6Q493 -6 468.0 -3.0Q443 0 427.5 5.0Q412 10 406.0 18.0Q400 26 400 36V491L46 1196Q27 1233 21.5 1253.5Q16 1274 27.5 1284.5Q39 1295 70.0 1297.5Q101 1300 156 1300Q202 1300 229.5 1298.0Q257 1296 273.0 1290.5Q289 1285 296.5 1276.0Q304 1267 311 1253L455 935Q476 889 496.5 838.0Q517 787 538 731H540Q559 785 579.0 836.0Q599 887 618 933L760 1249Q765 1265 772.5 1274.5Q780 1284 795.0 1290.0Q810 1296 836.0 1298.0Q862 1300 905 1300Q962 1300 993.5 1297.5Q1025 1295 1036.5 1284.5Q1048 1274 1042.0 1253.0Q1036 1232 1018 1196Z" transform="translate(635.38,170.13) scale(0.10010,-0.10010)"></path>
    <circle cx="804.36" cy="94.50" r="47.50" fill="none" stroke="#2DD4BF" stroke-width="14"></circle>
    <rect x="760.86" y="164.63" width="87" height="11" fill="#2DD4BF"></rect>
    <path fill="#2DD4BF" d="M908 388Q908 286 870.0 209.0Q832 132 767.0 80.5Q702 29 615.0 3.0Q528 -23 429 -23Q362 -23 304.5 -12.0Q247 -1 203.0 14.5Q159 30 129.5 47.0Q100 64 87.0 77.0Q74 90 68.5 114.5Q63 139 63 185Q63 216 65.0 237.0Q67 258 71.5 271.0Q76 284 83.5 289.5Q91 295 101 295Q115 295 140.5 278.5Q166 262 206.0 242.0Q246 222 301.5 205.5Q357 189 430 189Q478 189 516.0 200.5Q554 212 580.5 233.0Q607 254 621.0 285.0Q635 316 635 354Q635 398 611.0 429.5Q587 461 548.5 485.5Q510 510 461.0 531.5Q412 553 360.0 577.0Q308 601 259.0 631.5Q210 662 171.5 704.5Q133 747 109.0 805.0Q85 863 85 944Q85 1037 119.5 1107.5Q154 1178 212.5 1224.5Q271 1271 350.5 1294.0Q430 1317 519 1317Q565 1317 611.0 1310.0Q657 1303 697.0 1291.0Q737 1279 768.0 1264.0Q799 1249 809.0 1239.0Q819 1229 822.5 1222.0Q826 1215 828.5 1203.5Q831 1192 832.0 1174.5Q833 1157 833 1131Q833 1102 831.5 1082.0Q830 1062 826.5 1049.0Q823 1036 816.5 1030.0Q810 1024 799 1024Q788 1024 764.0 1038.0Q740 1052 705.0 1068.5Q670 1085 624.0 1098.5Q578 1112 523 1112Q480 1112 448.0 1101.5Q416 1091 394.5 1072.5Q373 1054 362.5 1028.0Q352 1002 352 973Q352 930 375.5 898.5Q399 867 438.5 842.5Q478 818 528.0 796.5Q578 775 630.0 751.0Q682 727 732.0 696.5Q782 666 821.0 623.5Q860 581 884.0 523.5Q908 466 908 388Z" transform="translate(858.55,170.13) scale(0.10010,-0.10010)"></path>
  </g>
</svg>